<?xml version="1.0" standalone="no"?>
<!DOCTYPE svg PUBLIC "-//W3C//DTD SVG 20010904//EN"
 "http://www.w3.org/TR/2001/REC-SVG-20010904/DTD/svg10.dtd">
<svg version="1.0" xmlns="http://www.w3.org/2000/svg"
 width="512.000000pt" height="512.000000pt" viewBox="0 0 512.000000 512.000000"
 preserveAspectRatio="xMidYMid meet">

<g transform="translate(0.000000,512.000000) scale(0.100000,-0.100000)"
fill="#000000" stroke="none">
<path d="M1760 4315 c-437 -437 -798 -795 -802 -795 -4 0 -9 193 -10 429 -3
416 -4 430 -24 457 -38 52 -70 68 -130 68 -67 -1 -100 -22 -131 -84 l-23 -44
0 -576 0 -575 -317 -317 -318 -318 317 -318 317 -317 3 -592 c3 -578 3 -592
24 -620 30 -42 104 -76 147 -68 49 9 94 39 117 77 19 32 20 52 20 456 0 232 3
422 7 422 5 0 367 -359 805 -797 l798 -798 408 408 c224 224 410 407 413 407
3 0 6 -16 7 -35 2 -47 25 -89 64 -117 l33 -23 447 0 c434 0 447 1 475 21 42
30 76 104 68 147 -9 49 -39 94 -77 117 -29 17 -51 20 -170 20 l-138 0 0 292 0
293 512 512 513 513 -535 535 c-1020 1023 -2016 2015 -2020 2015 -3 0 -363
-358 -800 -795z m1431 -41 l627 -627 -19 -31 c-17 -28 -19 -53 -19 -275 0
-278 3 -291 84 -330 54 -27 81 -26 136 1 71 36 84 69 90 226 l5 132 405 -405
405 -405 -405 -405 -405 -405 -6 159 c-8 188 -27 266 -89 359 -104 155 -277
252 -450 252 -90 0 -161 -67 -162 -154 -2 -88 52 -142 156 -157 102 -14 168
-56 209 -133 21 -39 22 -54 25 -340 l4 -299 -611 -611 -611 -611 -785 785
c-432 432 -785 791 -785 798 0 23 52 116 98 175 46 59 137 134 202 167 19 10
67 27 105 39 297 92 614 -45 750 -324 60 -123 65 -172 65 -663 0 -439 0 -439
23 -473 31 -47 104 -82 151 -73 49 9 95 42 118 84 18 33 19 60 15 525 -3 473
-4 493 -26 570 -71 254 -268 491 -496 600 -322 152 -690 118 -967 -90 l-73
-55 -3 507 -2 508 802 802 c442 442 805 803 808 803 3 0 287 -282 631 -626z
m-2551 -1716 l0 -423 -212 212 -213 213 210 210 c115 115 211 210 212 210 2 0
3 -190 3 -422z m3138 -1475 l-3 -128 -127 -3 c-71 -1 -128 1 -128 5 0 10 242
253 253 253 4 0 6 -57 5 -127z"/>
</g>
</svg>
